<svg width="20" height="20" viewBox="0 0 20 20" fill="none" xmlns="http://www.w3.org/2000/svg">
<path fill-rule="evenodd" clip-rule="evenodd" d="M18.7499 10C18.7499 9.83424 18.684 9.67526 18.5668 9.55805C18.4496 9.44084 18.2907 9.375 18.1249 9.375H3.38365L7.3174 5.4425C7.37551 5.38439 7.4216 5.3154 7.45305 5.23948C7.4845 5.16355 7.50069 5.08218 7.50069 5C7.50069 4.91782 7.4845 4.83644 7.45305 4.76052C7.4216 4.68459 7.37551 4.61561 7.3174 4.5575C7.25929 4.49939 7.1903 4.45329 7.11438 4.42184C7.03845 4.39039 6.95708 4.37421 6.8749 4.37421C6.79272 4.37421 6.71134 4.39039 6.63542 4.42184C6.55949 4.45329 6.49051 4.49939 6.4324 4.5575L1.4324 9.5575C1.37419 9.61555 1.32801 9.68452 1.29651 9.76045C1.265 9.83639 1.24878 9.91779 1.24878 10C1.24878 10.0822 1.265 10.1636 1.29651 10.2395C1.32801 10.3155 1.37419 10.3844 1.4324 10.4425L6.4324 15.4425C6.49051 15.5006 6.55949 15.5467 6.63542 15.5781C6.71134 15.6096 6.79272 15.6258 6.8749 15.6258C6.95708 15.6258 7.03845 15.6096 7.11438 15.5781C7.1903 15.5467 7.25929 15.5006 7.3174 15.4425C7.37551 15.3844 7.4216 15.3154 7.45305 15.2395C7.4845 15.1636 7.50069 15.0822 7.50069 15C7.50069 14.9178 7.4845 14.8364 7.45305 14.7605C7.4216 14.6846 7.37551 14.6156 7.3174 14.5575L3.38365 10.625H18.1249C18.2907 10.625 18.4496 10.5591 18.5668 10.4419C18.684 10.3247 18.7499 10.1658 18.7499 10Z" fill="black"/>
</svg>
