<svg width="12" height="20" viewBox="0 0 12 20" fill="none" xmlns="http://www.w3.org/2000/svg">
<path d="M0.614258 10.2441C0.625 9.87891 0.753906 9.56738 1.04395 9.28809L9.42285 1.0918C9.64844 0.855469 9.94922 0.737305 10.293 0.737305C10.9912 0.737305 11.5391 1.27441 11.5391 1.97266C11.5391 2.31641 11.3994 2.62793 11.1631 2.875L3.61133 10.2441L11.1631 17.6133C11.3994 17.8496 11.5391 18.1611 11.5391 18.5049C11.5391 19.2139 10.9912 19.751 10.293 19.751C9.94922 19.751 9.64844 19.6328 9.42285 19.3965L1.04395 11.2002C0.753906 10.9209 0.614258 10.6094 0.614258 10.2441Z" fill="white"/>
</svg>
