<svg width="20" height="20" viewBox="0 0 20 20" fill="none" xmlns="http://www.w3.org/2000/svg">
<g clip-path="url(#clip0_88_1587)">
<path d="M8.63846 3.83543C7.99358 2.8822 7.33322 2.07822 6.73763 1.52206C6.4421 1.23223 6.1052 0.987862 5.73794 0.796926C5.43239 0.650492 4.94944 0.508282 4.49606 0.768765C3.97932 1.06867 3.89484 1.65582 3.89061 2.03035C3.88639 2.45839 3.98073 2.96528 4.1342 3.50032C4.41017 4.46763 4.91706 5.65178 5.5915 6.88239L0.978826 11.4951C0.588804 11.8851 0.600068 12.4187 0.671877 12.7876C0.749318 13.1861 0.935177 13.6226 1.17876 14.0591C1.66876 14.9419 2.47414 15.9754 3.46821 16.9709C4.46368 17.9663 5.49716 18.7703 6.37999 19.2603C6.81648 19.5039 7.25297 19.6897 7.65143 19.7672C8.02034 19.8376 8.55257 19.8503 8.944 19.4602L16.85 11.5542C17.0162 11.9161 16.9796 12.2751 16.9204 12.8763C16.8782 13.2875 16.8247 13.8127 16.8176 14.5322V14.7053H16.8219C16.8514 15.0572 17.012 15.3851 17.2719 15.624C17.5317 15.863 17.8719 15.9957 18.225 15.9957C18.578 15.9957 18.9182 15.863 19.1781 15.624C19.4379 15.3851 19.5985 15.0572 19.6281 14.7053H19.6323V14.6251C19.6336 14.5701 19.6317 14.5151 19.6266 14.4604C19.5492 12.7003 18.641 10.6052 17.0077 9.54073C16.9202 9.33166 16.821 9.12765 16.7106 8.92965C16.2192 8.04823 15.4153 7.01474 14.4198 6.01927C13.4243 5.0238 12.3908 4.21842 11.508 3.72842C11.0715 3.48624 10.635 3.30039 10.2366 3.22154C9.86766 3.15114 9.33543 3.13987 8.944 3.52989L8.63846 3.83543ZM5.77736 2.54991C6.31382 3.05117 6.96573 3.84811 7.62327 4.8478L6.63203 5.84045C6.09416 4.81682 5.70273 3.86641 5.48731 3.11171C5.39292 2.80315 5.3311 2.48555 5.30286 2.16411C5.43099 2.25 5.59009 2.37532 5.77736 2.54991ZM6.33212 8.13271C7.09245 9.33234 7.8908 10.3391 8.59481 10.9952C8.66248 11.0583 8.74191 11.1074 8.82857 11.1397C8.91522 11.1721 9.0074 11.1871 9.09983 11.1838C9.19227 11.1805 9.28316 11.1591 9.36731 11.1207C9.45146 11.0823 9.52723 11.0277 9.59028 10.96C9.65333 10.8923 9.70244 10.8129 9.73479 10.7263C9.76715 10.6396 9.78212 10.5474 9.77885 10.455C9.77558 10.3626 9.75414 10.2717 9.71574 10.1875C9.67735 10.1034 9.62275 10.0276 9.55508 9.96455C8.91724 9.37036 8.12312 8.36503 7.35293 7.11049L8.88486 5.57856C8.96089 5.74753 9.04678 5.92071 9.14253 6.09249C9.63393 6.97532 10.4379 8.00881 11.4334 9.00428C12.4274 9.99975 13.4609 10.8037 14.3452 11.2937C14.5169 11.3895 14.6887 11.4768 14.8591 11.5514L8.0147 18.3972C7.98254 18.3944 7.95056 18.3897 7.91896 18.3831C7.72606 18.3451 7.43742 18.2367 7.06288 18.0283C6.32508 17.6171 5.39297 16.9019 4.46368 15.9726C3.53438 15.0433 2.81911 14.114 2.40797 13.3734C2.20099 13.0002 2.09116 12.7116 2.05455 12.5187C2.04795 12.4871 2.04325 12.4551 2.04047 12.4229L6.33212 8.13271ZM10.3731 5.40819C10.2274 5.16014 10.1134 4.89476 10.0338 4.61829C10.2239 4.66476 10.49 4.77317 10.8251 4.95763C11.5629 5.36877 12.495 6.08404 13.4243 7.01334C14.0579 7.64694 14.593 8.28196 14.9985 8.85784C14.4946 8.82331 13.9883 8.86653 13.4975 8.98597C13.1261 8.67672 12.7691 8.35065 12.4274 8.00881C11.4981 7.07951 10.7843 6.1474 10.3745 5.40819H10.3731Z" fill="black"/>
</g>
<defs>
<clipPath id="clip0_88_1587">
<rect width="20" height="20" fill="white"/>
</clipPath>
</defs>
</svg>
