<svg width="33" height="33" viewBox="0 0 33 33" fill="none" xmlns="http://www.w3.org/2000/svg">
<g clip-path="url(#clip0_88_1503)">
<path d="M21.6562 17.5312C21.6562 20.379 19.3477 22.6875 16.5 22.6875C13.6523 22.6875 11.3438 20.379 11.3438 17.5312C11.3438 14.6835 13.6523 12.375 16.5 12.375C19.3477 12.375 21.6562 14.6835 21.6562 17.5312Z" fill="white"/>
<path d="M4.125 8.25C1.84683 8.25 0 10.0968 0 12.375V24.75C0 27.0282 1.84683 28.875 4.125 28.875H28.875C31.1532 28.875 33 27.0282 33 24.75V12.375C33 10.0968 31.1532 8.25 28.875 8.25H26.4586C25.3646 8.25 24.3154 7.8154 23.5418 7.04182L21.8332 5.33318C21.0596 4.5596 20.0104 4.125 18.9164 4.125H14.0836C12.9896 4.125 11.9404 4.5596 11.1668 5.33318L9.45818 7.04182C8.6846 7.8154 7.63539 8.25 6.54137 8.25H4.125ZM5.15625 12.375C4.58671 12.375 4.125 11.9133 4.125 11.3438C4.125 10.7742 4.58671 10.3125 5.15625 10.3125C5.72579 10.3125 6.1875 10.7742 6.1875 11.3438C6.1875 11.9133 5.72579 12.375 5.15625 12.375ZM23.7188 17.5312C23.7188 21.5181 20.4868 24.75 16.5 24.75C12.5132 24.75 9.28125 21.5181 9.28125 17.5312C9.28125 13.5444 12.5132 10.3125 16.5 10.3125C20.4868 10.3125 23.7188 13.5444 23.7188 17.5312Z" fill="white"/>
</g>
<defs>
<clipPath id="clip0_88_1503">
<rect width="33" height="33" fill="white"/>
</clipPath>
</defs>
</svg>
