<svg width="20" height="20" viewBox="0 0 20 20" fill="none" xmlns="http://www.w3.org/2000/svg">
<path fill-rule="evenodd" clip-rule="evenodd" d="M13.3075 0.807488C13.3656 0.749284 13.4345 0.703105 13.5105 0.671597C13.5864 0.640089 13.6678 0.623871 13.75 0.623871C13.8322 0.623871 13.9136 0.640089 13.9895 0.671597C14.0655 0.703105 14.1344 0.749284 14.1925 0.807488L19.1925 5.80749C19.2507 5.86554 19.2969 5.93451 19.3284 6.01045C19.3599 6.08638 19.3761 6.16778 19.3761 6.24999C19.3761 6.3322 19.3599 6.4136 19.3284 6.48953C19.2969 6.56546 19.2507 6.63443 19.1925 6.69249L16.815 9.06999L15.7788 13.2112C15.7 13.5266 15.5405 13.816 15.3161 14.0511C15.0917 14.2863 14.8101 14.459 14.4988 14.5525L1.5675 18.4325L5.4475 5.49999C5.54103 5.18906 5.71369 4.90775 5.94858 4.6836C6.18347 4.45944 6.47255 4.30012 6.7875 4.22124L10.9288 3.18624L13.3075 0.807488ZM11.0575 4.44249L7.09125 5.43374C6.98597 5.46002 6.88934 5.51325 6.81088 5.58821C6.73241 5.66317 6.67482 5.75726 6.64375 5.86124L3.43125 16.5675L14.14 13.355C14.2434 13.3237 14.3368 13.2661 14.4113 13.1879C14.4858 13.1097 14.5388 13.0135 14.565 12.9087L15.5575 8.94124L11.0575 4.44249Z" fill="black"/>
<path fill-rule="evenodd" clip-rule="evenodd" d="M3.54 16.535L9.99999 11.25C10.2472 11.25 10.4889 11.1767 10.6945 11.0393C10.9 10.902 11.0602 10.7068 11.1548 10.4784C11.2495 10.2499 11.2742 9.99861 11.226 9.75614C11.1777 9.51366 11.0587 9.29093 10.8839 9.11612C10.7091 8.9413 10.4863 8.82225 10.2439 8.77402C10.0014 8.72579 9.75005 8.75054 9.52164 8.84515C9.29323 8.93976 9.09801 9.09998 8.96066 9.30554C8.82331 9.5111 8.74999 9.75277 8.74999 10L3.465 16.46L3.4325 16.5675L3.54 16.535Z" fill="black"/>
</svg>
