<svg width="24" height="24" viewBox="0 0 24 24" fill="none" xmlns="http://www.w3.org/2000/svg">
<g clip-path="url(#clip0_88_1500)">
<path d="M14.25 4.008C14.25 4.20691 14.329 4.39768 14.4696 4.53833C14.6103 4.67898 14.8011 4.758 15 4.758C15.1989 4.758 15.3897 4.67898 15.5303 4.53833C15.671 4.39768 15.75 4.20691 15.75 4.008V1.2645C15.75 1.06558 15.671 0.874818 15.5303 0.734166C15.3897 0.593514 15.1989 0.514496 15 0.514496C14.8011 0.514496 14.6103 0.593514 14.4696 0.734166C14.329 0.874818 14.25 1.06558 14.25 1.2645V4.008ZM21 4.0605C21.1366 3.91905 21.2122 3.72959 21.2105 3.53295C21.2088 3.3363 21.1299 3.14819 20.9908 3.00913C20.8518 2.87008 20.6637 2.7912 20.467 2.78949C20.2704 2.78778 20.0809 2.86338 19.9395 3L18 4.9395C17.9283 5.00868 17.8712 5.09144 17.8319 5.18295C17.7926 5.27445 17.7719 5.37286 17.771 5.47245C17.7702 5.57203 17.7891 5.67079 17.8269 5.76296C17.8646 5.85514 17.9203 5.93888 17.9907 6.00929C18.0611 6.07971 18.1448 6.1354 18.237 6.17312C18.3292 6.21083 18.4279 6.2298 18.5275 6.22894C18.6271 6.22807 18.7255 6.20738 18.817 6.16808C18.9085 6.12877 18.9913 6.07163 19.0605 6L21 4.0605ZM10.9395 6C11.0087 6.07163 11.0914 6.12877 11.1829 6.16808C11.2744 6.20738 11.3728 6.22807 11.4724 6.22894C11.572 6.2298 11.6708 6.21083 11.7629 6.17312C11.8551 6.1354 11.9389 6.07971 12.0093 6.00929C12.0797 5.93888 12.1354 5.85514 12.1731 5.76296C12.2108 5.67079 12.2298 5.57203 12.2289 5.47245C12.228 5.37286 12.2074 5.27445 12.1681 5.18295C12.1287 5.09144 12.0716 5.00868 12 4.9395L10.0605 3C9.91902 2.86338 9.72957 2.78778 9.53293 2.78949C9.33628 2.7912 9.14817 2.87008 9.00911 3.00913C8.87006 3.14819 8.79118 3.3363 8.78947 3.53295C8.78776 3.72959 8.86336 3.91905 8.99998 4.0605L10.9395 6ZM10.008 9.75C10.2069 9.75 10.3977 9.67098 10.5383 9.53033C10.679 9.38968 10.758 9.19891 10.758 9C10.758 8.80109 10.679 8.61032 10.5383 8.46967C10.3977 8.32902 10.2069 8.25 10.008 8.25H7.26448C7.06556 8.25 6.8748 8.32902 6.73415 8.46967C6.59349 8.61032 6.51448 8.80109 6.51448 9C6.51448 9.19891 6.59349 9.38968 6.73415 9.53033C6.8748 9.67098 7.06556 9.75 7.26448 9.75H10.008ZM22.7355 9.75C22.9344 9.75 23.1251 9.67098 23.2658 9.53033C23.4065 9.38968 23.4855 9.19891 23.4855 9C23.4855 8.80109 23.4065 8.61032 23.2658 8.46967C23.1251 8.32902 22.9344 8.25 22.7355 8.25H19.992C19.7931 8.25 19.6023 8.32902 19.4616 8.46967C19.321 8.61032 19.242 8.80109 19.242 9C19.242 9.19891 19.321 9.38968 19.4616 9.53033C19.6023 9.67098 19.7931 9.75 19.992 9.75H22.7355ZM19.9395 15C20.0087 15.0716 20.0914 15.1288 20.1829 15.1681C20.2744 15.2074 20.3728 15.2281 20.4724 15.2289C20.572 15.2298 20.6708 15.2108 20.7629 15.1731C20.8551 15.1354 20.9388 15.0797 21.0093 15.0093C21.0797 14.9389 21.1354 14.8551 21.1731 14.763C21.2108 14.6708 21.2298 14.572 21.2289 14.4725C21.228 14.3729 21.2074 14.2745 21.168 14.1829C21.1287 14.0914 21.0716 14.0087 21 13.9395L19.0605 12C18.9913 11.9284 18.9085 11.8712 18.817 11.8319C18.7255 11.7926 18.6271 11.7719 18.5275 11.7711C18.4279 11.7702 18.3292 11.7892 18.237 11.8269C18.1448 11.8646 18.0611 11.9203 17.9907 11.9907C17.9203 12.0611 17.8646 12.1449 17.8269 12.237C17.7891 12.3292 17.7702 12.428 17.771 12.5276C17.7719 12.6271 17.7926 12.7256 17.8319 12.8171C17.8712 12.9086 17.9283 12.9913 18 13.0605L19.9395 15ZM14.25 16.7355C14.25 16.9344 14.329 17.1252 14.4696 17.2658C14.6103 17.4065 14.8011 17.4855 15 17.4855C15.1989 17.4855 15.3897 17.4065 15.5303 17.2658C15.671 17.1252 15.75 16.9344 15.75 16.7355V13.992C15.75 13.7931 15.671 13.6023 15.5303 13.4617C15.3897 13.321 15.1989 13.242 15 13.242C14.8011 13.242 14.6103 13.321 14.4696 13.4617C14.329 13.6023 14.25 13.7931 14.25 13.992V16.7355ZM17.031 9.09C17.1711 8.94942 17.2498 8.75901 17.2498 8.5605C17.2498 8.36199 17.1711 8.17158 17.031 8.031L15.969 6.969C15.8283 6.8284 15.6376 6.74941 15.4387 6.74941C15.2398 6.74941 15.0491 6.8284 14.9085 6.969L12.969 8.91C12.8284 9.05065 12.7494 9.24138 12.7494 9.44025C12.7494 9.63912 12.8284 9.82985 12.969 9.9705L14.031 11.0325C14.1716 11.1731 14.3624 11.2521 14.5612 11.2521C14.7601 11.2521 14.9508 11.1731 15.0915 11.0325L17.031 9.093V9.09ZM12.531 13.59C12.6711 13.4494 12.7498 13.259 12.7498 13.0605C12.7498 12.862 12.6711 12.6716 12.531 12.531L11.469 11.469C11.3283 11.3284 11.1376 11.2494 10.9387 11.2494C10.7399 11.2494 10.5491 11.3284 10.4085 11.469L0.968979 20.91C0.828376 21.0507 0.74939 21.2414 0.74939 21.4403C0.74939 21.6391 0.828376 21.8299 0.968979 21.9705L2.03098 23.0325C2.17162 23.1731 2.36236 23.2521 2.56123 23.2521C2.7601 23.2521 2.95083 23.1731 3.09148 23.0325L12.531 13.59Z" fill="black"/>
</g>
<defs>
<clipPath id="clip0_88_1500">
<rect width="24" height="24" fill="white"/>
</clipPath>
</defs>
</svg>
